# xmcd
#
# Track frame offsets:
#	150
#	15219
#	28060
#	41354
#	53895
#	84574
#	102262
#	117674
#	137752
#	152711
#	169167
#	188611
#	202455
#	223152
#
# Disc length: 3282 seconds
#
# Revision: 24
# Processed by: cddbd v1.5.2PL0 Copyright (c) Steve Scherf et al.
# Submitted via: Jack! The Knife 20 Magnifico
#
DISCID=c30cd00e
DTITLE=Venom - Cast In Stone
DYEAR=1997
DGENRE=Black Metal
TTITLE0=The Evil One
TTITLE1=Raised In Hell
TTITLE2=All Devils Eve
TTITLE3=Bleeding
TTITLE4=Destroyed and Damned
TTITLE5=Domus Mundi
TTITLE6=Flight Of The Hydra
TTITLE7=God's Forsaken
TTITLE8=Mortals
TTITLE9=Infectious
TTITLE10=Kings Of Evil
TTITLE11=You're All Gonna Die
TTITLE12=Judgement Day
TTITLE13=Swarm
EXTD=
EXTT0=Cronos, Mantas, Abaddon
EXTT1=Cronos, Mantas, Abaddon
EXTT2=Cronos, Mantas, Abaddon
EXTT3=Cronos, Mantas, Abaddon
EXTT4=Cronos, Mantas, Abaddon
EXTT5=Cronos, Mantas, Abaddon
EXTT6=Cronos, Mantas, Abaddon
EXTT7=Cronos, Mantas, Abaddon
EXTT8=Cronos, Mantas, Abaddon
EXTT9=Cronos, Mantas, Abaddon
EXTT10=Cronos, Mantas, Abaddon
EXTT11=Cronos, Mantas, Abaddon
EXTT12=Cronos, Mantas, Abaddon
EXTT13=Cronos, Mantas, Abaddon
PLAYORDER=
